<!-- <?xml version="1.0" encoding="UTF-8"?> -->
<!-- <svg xmlns="http://www.w3.org/2000/svg" id="Bold" viewBox="0 0 24 24" width="512" height="512"><path d="M22.552,13.21,20.8,6.916A9.443,9.443,0,0,0,2.486,7.4L1.132,13.489A5.5,5.5,0,0,0,6.5,20.182h.4a5.285,5.285,0,0,0,10.154,0h.193a5.5,5.5,0,0,0,5.3-6.972Zm-3.309,2.984a2.48,2.48,0,0,1-1.991.988H6.5a2.5,2.5,0,0,1-2.44-3.042l1.354-6.1a6.443,6.443,0,0,1,12.5-.326l1.748,6.294A2.478,2.478,0,0,1,19.243,16.194Z"/></svg> -->
<!-- <svg xmlns="http://www.w3.org/2000/svg" version="1.1" xmlns:xlink="http://www.w3.org/1999/xlink" width="512" height="512" x="0" y="0" viewBox="0 0 24 24" style="enable-background:new 0 0 512 512" xml:space="preserve" class=""><g><path d="M7.424 21a4.99 4.99 0 0 0 9.152 0ZM22.392 12.549l-1.736-5.723A9.321 9.321 0 0 0 2.58 7.28l-1.348 5.537A5 5 0 0 0 6.09 19h11.517a5 5 0 0 0 4.785-6.451Z" fill="#ffffff" opacity="1" data-original="#000000" class=""></path></g></svg> -->
<!-- <svg xmlns="http://www.w3.org/2000/svg" version="1.1" xmlns:xlink="http://www.w3.org/1999/xlink" width="512" height="512" x="0" y="0" viewBox="0 0 24 24" style="enable-background:new 0 0 512 512" xml:space="preserve" class=""><g><path d="m23.259 16.2-2.6-9.371A9.321 9.321 0 0 0 2.576 7.3L.565 16.35A3 3 0 0 0 3.493 20H7.1a5 5 0 0 0 9.8 0h3.47a3 3 0 0 0 2.89-3.8ZM12 22a3 3 0 0 1-2.816-2h5.632A3 3 0 0 1 12 22Zm9.165-4.395a.993.993 0 0 1-.8.395H3.493a1 1 0 0 1-.976-1.217l2.011-9.05a7.321 7.321 0 0 1 14.2-.372l2.6 9.371a.993.993 0 0 1-.163.873Z" data-name="01 align center" fill="#ffffff" opacity="1" data-original="#000000" class=""></path></g></svg> -->
<svg xmlns="http://www.w3.org/2000/svg" version="1.1" xmlns:xlink="http://www.w3.org/1999/xlink" width="512" height="512" x="0" y="0" viewBox="0 0 24 24" style="enable-background:new 0 0 512 512" xml:space="preserve" class=""><g><path d="m22.555 13.662-1.9-6.836A9.321 9.321 0 0 0 2.576 7.3l-1.471 6.615A5 5 0 0 0 5.986 20H7.1a5 5 0 0 0 9.8 0h.838a5 5 0 0 0 4.818-6.338ZM12 22a3 3 0 0 1-2.816-2h5.632A3 3 0 0 1 12 22Zm8.126-5.185A2.977 2.977 0 0 1 17.737 18H5.986a3 3 0 0 1-2.928-3.651l1.47-6.616a7.321 7.321 0 0 1 14.2-.372l1.9 6.836a2.977 2.977 0 0 1-.502 2.618Z" fill="#ffffff" opacity="1" data-original="#000000" class=""></path></g></svg>