<!-- <svg xmlns="http://www.w3.org/2000/svg" version="1.1" xmlns:xlink="http://www.w3.org/1999/xlink" width="512" height="512" x="0" y="0" viewBox="0 0 24 24" style="enable-background:new 0 0 512 512" xml:space="preserve" class=""><g><path d="M23.9 11.437A12 12 0 0 0 0 13a11.878 11.878 0 0 0 3.759 8.712A4.84 4.84 0 0 0 7.113 23h9.767a4.994 4.994 0 0 0 3.509-1.429A11.944 11.944 0 0 0 23.9 11.437Zm-4.909 8.7A3 3 0 0 1 16.88 21H7.113a2.862 2.862 0 0 1-1.981-.741A9.9 9.9 0 0 1 2 13a10.014 10.014 0 0 1 3.338-7.457A9.881 9.881 0 0 1 11.986 3a10.553 10.553 0 0 1 1.174.066 9.994 9.994 0 0 1 5.831 17.076ZM7.807 17.285a1 1 0 0 1-1.4 1.43A8 8 0 0 1 12 5a8.072 8.072 0 0 1 1.143.081 1 1 0 0 1 .847 1.133.989.989 0 0 1-1.133.848 6 6 0 0 0-5.05 10.223Zm12.112-5.428A8.072 8.072 0 0 1 20 13a7.931 7.931 0 0 1-2.408 5.716 1 1 0 0 1-1.4-1.432 5.98 5.98 0 0 0 1.744-5.141 1 1 0 0 1 1.981-.286Zm-5.993.631a2.033 2.033 0 1 1-1.414-1.414l3.781-3.781a1 1 0 1 1 1.414 1.414Z" fill="#ffffff" opacity="1" data-original="#000000" class=""></path></g></svg> -->
<svg xmlns="http://www.w3.org/2000/svg" version="1.1" xmlns:xlink="http://www.w3.org/1999/xlink" width="512" height="512" x="0" y="0" viewBox="0 0 24 24" style="enable-background:new 0 0 512 512" xml:space="preserve" class=""><g><path d="m20.572 4.312-6-3.6a4.987 4.987 0 0 0-5.145 0l-6 3.6A5.027 5.027 0 0 0 1 8.6v6.8a5.027 5.027 0 0 0 2.427 4.288l6 3.6a4.985 4.985 0 0 0 5.145 0l6-3.6A5.027 5.027 0 0 0 23 15.4V8.6a5.027 5.027 0 0 0-2.428-4.288ZM10.457 2.428a2.989 2.989 0 0 1 3.086 0l6 3.6a2.978 2.978 0 0 1 .46.341l-8 4.8-8-4.8a2.931 2.931 0 0 1 .46-.341Zm-6 15.545A3.015 3.015 0 0 1 3 15.4V8.6a2.881 2.881 0 0 1 .039-.475L11 12.9v8.928a3.022 3.022 0 0 1-.543-.257ZM21 15.4a3.017 3.017 0 0 1-1.457 2.573l-6 3.6a3.022 3.022 0 0 1-.543.257V12.9l7.961-4.776A2.881 2.881 0 0 1 21 8.6Z" fill="#ffffff" opacity="1" data-original="#000000" class=""></path></g></svg>