<svg xmlns="http://www.w3.org/2000/svg" version="1.1" xmlns:xlink="http://www.w3.org/1999/xlink" width="512" height="512" x="0" y="0" viewBox="0 0 24 24" style="enable-background:new 0 0 512 512" xml:space="preserve" class=""><g><path d="M12 0a12.034 12.034 0 0 0-7.96 3.04L2.707 1.707A1 1 0 0 0 1 2.414V7a1 1 0 0 0 1 1h4.586a1 1 0 0 0 .707-1.707L6.158 5.158A9 9 0 0 1 21 12.26a9 9 0 0 1-17.9 1.056A1.51 1.51 0 0 0 1.613 12a1.489 1.489 0 0 0-1.498 1.663 12.018 12.018 0 0 0 12.359 10.328 12.114 12.114 0 0 0 11.517-11.517A12.013 12.013 0 0 0 12 0Z" fill="#ffffff" opacity="1" data-original="#000000" class=""></path><path d="M11.5 7A1.5 1.5 0 0 0 10 8.5v4.293a2 2 0 0 0 .586 1.414L12.379 16a1.5 1.5 0 0 0 2.121-2.121l-1.5-1.5V8.5A1.5 1.5 0 0 0 11.5 7Z" fill="#ffffff" opacity="1" data-original="#000000" class=""></path></g></svg>