<!-- <svg xmlns="http://www.w3.org/2000/svg" version="1.1" xmlns:xlink="http://www.w3.org/1999/xlink" width="512" height="512" x="0" y="0" viewBox="0 0 24 24" style="enable-background:new 0 0 512 512" xml:space="preserve" class=""><g><path d="M12 7c-2.76 0-5 2.24-5 5s2.24 5 5 5 5-2.24 5-5-2.24-5-5-5Zm0 7c-1.1 0-2-.9-2-2s.9-2 2-2 2 .9 2 2-.9 2-2 2Zm4.95-6.95a1.49 1.49 0 0 1 0-2.12l1.41-1.41a1.49 1.49 0 0 1 2.12 0c.59.59.59 1.54 0 2.12l-1.41 1.41c-.29.29-.68.44-1.06.44s-.77-.15-1.06-.44Zm-9.9 9.9c.59.59.59 1.54 0 2.12l-1.41 1.41c-.29.29-.68.44-1.06.44s-.77-.15-1.06-.44a1.49 1.49 0 0 1 0-2.12l1.41-1.41a1.49 1.49 0 0 1 2.12 0ZM3.51 5.64a1.49 1.49 0 0 1 0-2.12 1.49 1.49 0 0 1 2.12 0l1.41 1.41c.59.59.59 1.54 0 2.12-.29.29-.68.44-1.06.44s-.77-.15-1.06-.44L3.51 5.64Zm16.97 12.73c.59.59.59 1.54 0 2.12-.29.29-.68.44-1.06.44s-.77-.15-1.06-.44l-1.41-1.41a1.49 1.49 0 0 1 0-2.12 1.49 1.49 0 0 1 2.12 0l1.41 1.41Zm3.51-6.36c0 .83-.67 1.5-1.5 1.5h-2c-.83 0-1.5-.67-1.5-1.5s.67-1.5 1.5-1.5h2c.83 0 1.5.67 1.5 1.5ZM3.5 13.5h-2C.67 13.5 0 12.83 0 12s.67-1.5 1.5-1.5h2c.83 0 1.5.67 1.5 1.5s-.67 1.5-1.5 1.5Zm7-10v-2c0-.83.67-1.5 1.5-1.5s1.5.67 1.5 1.5v2c0 .83-.67 1.5-1.5 1.5s-1.5-.67-1.5-1.5Zm3 17v2c0 .83-.67 1.5-1.5 1.5s-1.5-.67-1.5-1.5v-2c0-.83.67-1.5 1.5-1.5s1.5.67 1.5 1.5Z" fill="#ffffff" opacity="1" data-original="#000000" class=""></path></g></svg> -->
<svg xmlns="http://www.w3.org/2000/svg" version="1.1" xmlns:xlink="http://www.w3.org/1999/xlink" width="512" height="512" x="0" y="0" viewBox="0 0 24 24" style="enable-background:new 0 0 512 512" xml:space="preserve" class=""><g><path d="M12 17c-2.76 0-5-2.24-5-5s2.24-5 5-5 5 2.24 5 5-2.24 5-5 5Zm0-8c-1.65 0-3 1.35-3 3s1.35 3 3 3 3-1.35 3-3-1.35-3-3-3Zm1-5V1c0-.55-.45-1-1-1s-1 .45-1 1v3c0 .55.45 1 1 1s1-.45 1-1Zm0 19v-3c0-.55-.45-1-1-1s-1 .45-1 1v3c0 .55.45 1 1 1s1-.45 1-1ZM5 12c0-.55-.45-1-1-1H1c-.55 0-1 .45-1 1s.45 1 1 1h3c.55 0 1-.45 1-1Zm19 0c0-.55-.45-1-1-1h-3c-.55 0-1 .45-1 1s.45 1 1 1h3c.55 0 1-.45 1-1ZM6.71 6.71a.996.996 0 0 0 0-1.41l-2-2A.996.996 0 1 0 3.3 4.71l2 2c.2.2.45.29.71.29s.51-.1.71-.29Zm14 14a.996.996 0 0 0 0-1.41l-2-2a.996.996 0 1 0-1.41 1.41l2 2c.2.2.45.29.71.29s.51-.1.71-.29Zm-16 0 2-2A.996.996 0 1 0 5.3 17.3l-2 2a.996.996 0 0 0 .71 1.7c.26 0 .51-.1.71-.29Zm14-14 2-2A.996.996 0 1 0 19.3 3.3l-2 2a.996.996 0 0 0 .71 1.7c.26 0 .51-.1.71-.29Z" fill="#ffffff" opacity="1" data-original="#000000" class=""></path></g></svg>