<?xml version="1.0" encoding="UTF-8"?>
<svg xmlns="http://www.w3.org/2000/svg" id="Layer_1" data-name="Layer 1" viewBox="0 0 24 24" width="512" height="512"><path d="M12,7c-2.76,0-5,2.24-5,5s2.24,5,5,5,5-2.24,5-5-2.24-5-5-5Zm0,7c-1.1,0-2-.9-2-2s.9-2,2-2,2,.9,2,2-.9,2-2,2Zm4.95-6.95c-.59-.59-.59-1.54,0-2.12l1.41-1.41c.59-.59,1.54-.59,2.12,0,.59,.59,.59,1.54,0,2.12l-1.41,1.41c-.29,.29-.68,.44-1.06,.44s-.77-.15-1.06-.44ZM7.05,16.95c.59,.59,.59,1.54,0,2.12l-1.41,1.41c-.29,.29-.68,.44-1.06,.44s-.77-.15-1.06-.44c-.59-.59-.59-1.54,0-2.12l1.41-1.41c.59-.59,1.54-.59,2.12,0ZM3.51,5.64c-.59-.59-.59-1.54,0-2.12,.59-.59,1.54-.59,2.12,0l1.41,1.41c.59,.59,.59,1.54,0,2.12-.29,.29-.68,.44-1.06,.44s-.77-.15-1.06-.44l-1.41-1.41Zm16.97,12.73c.59,.59,.59,1.54,0,2.12-.29,.29-.68,.44-1.06,.44s-.77-.15-1.06-.44l-1.41-1.41c-.59-.59-.59-1.54,0-2.12,.59-.59,1.54-.59,2.12,0l1.41,1.41Zm3.51-6.36c0,.83-.67,1.5-1.5,1.5h-2c-.83,0-1.5-.67-1.5-1.5s.67-1.5,1.5-1.5h2c.83,0,1.5,.67,1.5,1.5ZM3.5,13.5H1.5c-.83,0-1.5-.67-1.5-1.5s.67-1.5,1.5-1.5H3.5c.83,0,1.5,.67,1.5,1.5s-.67,1.5-1.5,1.5ZM10.5,3.5V1.5c0-.83,.67-1.5,1.5-1.5s1.5,.67,1.5,1.5V3.5c0,.83-.67,1.5-1.5,1.5s-1.5-.67-1.5-1.5Zm3,17v2c0,.83-.67,1.5-1.5,1.5s-1.5-.67-1.5-1.5v-2c0-.83,.67-1.5,1.5-1.5s1.5,.67,1.5,1.5Z"/></svg>
